#!OML:ASF H:\Dans Jumps\Project 1\Capture day 1\Session 1\subject.ASF
:FULLY-SPECIFIED
:DEGREES
421
root 0.145517 19.8415 -1.65446 8.57362 3.71391 0.537265
lowerback 5.6813 -0.604908 -3.15082
upperback 5.68489 -0.930383 1.67168
thorax 2.77077 -0.607134 3.52469
lowerneck -7.9343 0.341878 -2.87353
upperneck 22.7198 0.794434 0.754999
head 8.3322 0.210683 0.814205
rclavicle -2.48481e-015 -3.57812e-015
rhumerus -24.0547 -9.85892 -78.1699
rradius 33.1316
rwrist 27.8832
rhand -16.6896 -24.7695
rfingers 7.12502
rthumb 9.53484 -54.5338
lclavicle -2.48481e-015 -3.57812e-015
lhumerus -28.734 -4.87947 80.5948
lradius 18.0807
lwrist 18.1854
lhand -23.0344 -4.80175
lfingers 7.12502
lthumb 3.40987 25.1507
rfemur -30.7598 -5.42127 18.3532
rtibia 75.4088
rfoot 13.3372 -1.81443
rtoes 8.86671
lfemur -33.5094 10.8493 -17.3162
ltibia 73.103
lfoot 8.86298 5.03738
ltoes 5.50428
422
root 0.145001 19.8336 -1.47069 8.503 3.68127 0.57845
lowerback 6.50266 -0.580309 -3.21097
upperback 5.95004 -0.920407 1.72238
thorax 2.59321 -0.606036 3.62129
lowerneck -8.06103 0.340034 -2.86135
upperneck 22.5217 0.818424 0.637677
head 8.28911 0.213449 0.774491
rclavicle -2.98177e-015 -4.96962e-015
rhumerus -23.8759 -9.93434 -78.2974
rradius 33.0483
rwrist 27.8496
rhand -16.6902 -24.7657
rfingers 7.12502
rthumb 9.53429 -54.53
lclavicle -2.98177e-015 -4.96962e-015
lhumerus -28.8197 -4.22062 80.9041
lradius 17.5764
lwrist 17.5437
lhand -22.9154 -4.79505
lfingers 7.12502
lthumb 3.52478 25.1556
rfemur -32.9795 -5.398 18.4037
rtibia 75.1378
rfoot 11.8986 -2.19653
rtoes 8.65026
lfemur -35.1661 10.9615 -18.0009
ltibia 72.3372
lfoot 7.76989 4.97814
ltoes 5.07975
423
root 0.145753 19.8113 -1.2823 8.38146 3.68392 0.605385
lowerback 7.3332 -0.559194 -3.22782
upperback 6.2302 -0.913619 1.77022
thorax 2.42749 -0.605422 3.69091
lowerneck -8.18239 0.327639 -2.83156
upperneck 22.3276 0.824342 0.521063
head 8.24685 0.209288 0.730468
rclavicle 3.77691e-015 -1.19271e-015
rhumerus -23.6891 -9.98879 -78.4196
rradius 32.8895
rwrist 27.813
rhand -16.6221 -24.7456
rfingers 7.12502
rthumb 9.59994 -54.5068
lclavicle 3.77691e-015 -1.19271e-015
lhumerus -28.9378 -3.63612 81.2573
lradius 17.0848
lwrist 16.8789
lhand -22.9844 -4.9665
lfingers 7.12502
lthumb 3.45816 24.9852
rfemur -34.9607 -5.36457 18.4658
rtibia 74.3396
rfoot 10.6331 -2.53163
rtoes 8.29158
lfemur -36.6018 10.9184 -18.6297
ltibia 71.1382
lfoot 6.81016 4.57515
ltoes 4.25588
424
root 0.148066 19.7745 -1.08854 8.19859 3.71007 0.618856
lowerback 8.17885 -0.537922 -3.19579
upperback 6.52038 -0.903988 1.81093
thorax 2.26461 -0.601705 3.72577
lowerneck -8.29319 0.300558 -2.80054
upperneck 22.1607 0.804722 0.426036
head 8.21213 0.195083 0.691259
rclavicle 7.35503e-015 -1.31198e-014
rhumerus -23.5186 -10.023 -78.5388
rradius 32.6876
rwrist 27.7628
rhand -16.5081 -24.7082
rfingers 7.12502
rthumb 9.70998 -54.4644
lclavicle 7.35503e-015 -1.31198e-014
lhumerus -29.1016 -3.13189 81.6518
lradius 16.6099
lwrist 16.2017
lhand -23.1671 -5.21441
lfingers 7.12502
lthumb 3.28172 24.7401
rfemur -36.6739 -5.32029 18.5238
rtibia 73.0238
rfoot 9.55441 -2.72761
rtoes 7.77757
lfemur -37.788 10.7474 -19.1884
ltibia 69.525
lfoot 5.92663 3.92708
ltoes 3.11234
425
root 0.152013 19.7242 -0.888893 7.96802 3.75274 0.613327
lowerback 9.02645 -0.518022 -3.10923
upperback 6.81234 -0.891748 1.84408
thorax 2.1033 -0.594586 3.72196
lowerneck -8.4181 0.261591 -2.77466
upperneck 22.0533 0.763111 0.36464
head 8.20016 0.172737 0.662477
rclavicle -9.34288e-015 5.1684e-015
rhumerus -23.3751 -10.0448 -78.6616
rradius 32.4621
rwrist 27.6998
rhand -16.3723 -24.6774
rfingers 7.12502
rthumb 9.84096 -54.4274
lclavicle -9.34288e-015 5.1684e-015
lhumerus -29.3031 -2.71034 82.0821
lradius 16.1391
lwrist 15.5479
lhand -23.4019 -5.51572
lfingers 7.12502
lthumb 3.05501 24.4421
rfemur -38.1213 -5.26252 18.5736
rtibia 71.2097
rfoot 8.66244 -2.74955
rtoes 7.22797
lfemur -38.7322 10.4829 -19.6683
ltibia 67.5205
lfoot 5.07205 3.15624
ltoes 1.8048
426
root 0.157749 19.6609 -0.682369 7.71438 3.79849 0.589594
lowerback 9.84621 -0.500517 -2.97318
upperback 7.08907 -0.876781 1.86872
thorax 1.9422 -0.583832 3.68082
lowerneck -8.53356 0.213244 -2.76497
upperneck 22.0074 0.701566 0.348873
head 8.20709 0.143463 0.649996
rclavicle 1.47101e-014 -2.38542e-015
rhumerus -23.2869 -10.0648 -78.7869
rradius 32.232
rwrist 27.6425
rhand -16.2569 -24.6491
rfingers 7.12502
rthumb 9.95232 -54.3938
lclavicle 1.47101e-014 -2.38542e-015
lhumerus -29.5696 -2.35 82.5362
lradius 15.6834
lwrist 14.9313
lhand -23.608 -5.95253
lfingers 7.12502
lthumb 2.85597 24.0081
rfemur -39.3201 -5.18811 18.6075
rtibia 68.9173
rfoot 7.95793 -2.58624
rtoes 6.6717
lfemur -39.454 10.1612 -20.0763
ltibia 65.1507
lfoot 4.18161 2.38439
ltoes 0.390192
427
root 0.164765 19.5851 -0.468888 7.48036 3.84127 0.540123
lowerback 10.5907 -0.488379 -2.79938
upperback 7.34038 -0.862115 1.8951
thorax 1.79702 -0.571762 3.61914
lowerneck -8.65089 0.162644 -2.76327
upperneck 22.0242 0.633762 0.356575
head 8.23539 0.112237 0.646332
rclavicle 2.62396e-014 -2.5842e-014
rhumerus -23.2403 -10.0884 -78.9119
rradius 32.0047
rwrist 27.6101
rhand -16.1731 -24.6374
rfingers 7.12502
rthumb 10.0332 -54.3782
lclavicle 2.62396e-014 -2.5842e-014
lhumerus -29.8683 -1.98576 82.9911
lradius 15.2295
lwrist 14.3174
lhand -23.7108 -6.29057
lfingers 7.12502
lthumb 2.75669 23.6714
rfemur -40.3189 -5.08961 18.6381
rtibia 66.1769
rfoot 7.46974 -2.27545
rtoes 6.13951
lfemur -40.0089 9.81634 -20.4136
ltibia 62.4456
lfoot 3.22237 1.69745
ltoes -1.1131
428
root 0.172698 19.4976 -0.247596 7.30058 3.87407 0.475737
lowerback 11.2151 -0.482057 -2.60787
upperback 7.5568 -0.848927 1.92185
thorax 1.68206 -0.559782 3.54625
lowerneck -8.74875 0.10969 -2.76872
upperneck 22.0795 0.560067 0.380363
head 8.27314 0.0788825 0.64872
rclavicle -8.94531e-015 1.23246e-014
rhumerus -23.2333 -10.1317 -79.035
rradius 31.7774
rwrist 27.6287
rhand -16.1109 -24.6425
rfingers 7.12502
rthumb 10.0932 -54.3805
lclavicle -8.94531e-015 1.23246e-014
lhumerus -30.1808 -1.55885 83.4074
lradius 14.7926
lwrist 13.7443
lhand -23.531 -6.38248
lfingers 7.12502
lthumb 2.9303 23.5771
rfemur -41.1516 -4.96349 18.6553
rtibia 63.0225
rfoot 7.22216 -1.87033
rtoes 5.55391
lfemur -40.4358 9.47426 -20.7031
ltibia 59.4321
lfoot 2.20074 1.14774
ltoes -2.65503
429
root 0.180876 19.3995 -0.017794 7.20055 3.88501 0.396391
lowerback 11.6804 -0.47473 -2.41269
upperback 7.73265 -0.829389 1.95293
thorax 1.61125 -0.544748 3.47283
lowerneck -8.80823 0.0550722 -2.74584
upperneck 22.1475 0.484842 0.372892
head 8.30835 0.044059 0.635634
rclavicle 5.76476e-015 3.97569e-015
rhumerus -23.26 -10.2162 -79.146
rradius 31.5419
rwrist 27.7105
rhand -16.0714 -24.6526
rfingers 7.12502
rthumb 10.1312 -54.3887
lclavicle 5.76476e-015 3.97569e-015
lhumerus -30.5067 -1.05335 83.7792
lradius 14.3711
lwrist 13.1842
lhand -23.1163 -6.21082
lfingers 7.12502
lthumb 3.33075 23.7429
rfemur -41.8489 -4.792 18.6612
rtibia 59.5008
rfoot 7.24103 -1.46471
rtoes 4.84852
lfemur -40.7673 9.16139 -20.9509
ltibia 56.139
lfoot 1.1417 0.738675
ltoes -4.27867
430
root 0.188536 19.2912 0.220816 7.18803 3.86889 0.308649
lowerback 11.9626 -0.461125 -2.23166
upperback 7.87499 -0.798912 1.98866
thorax 1.60417 -0.525415 3.40838
lowerneck -8.81265 -0.000753945 -2.67294
upperneck 22.1913 0.410496 0.305393
head 8.32557 0.00823643 0.593848
rclavicle -8.94531e-015 2.3059e-014
rhumerus -23.2963 -10.3469 -79.2448
rradius 31.2892
rwrist 27.8499
rhand -16.0473 -24.6586
rfingers 7.12502
rthumb 10.1545 -54.3935
lclavicle -8.94531e-015 2.3059e-014
lhumerus -30.8272 -0.454933 84.0943
lradius 13.9669
lwrist 12.6286
lhand -22.4801 -5.76708
lfingers 7.12502
lthumb 3.94514 24.1761
rfemur -42.4284 -4.56228 18.6482
rtibia 55.6753
rfoot 7.54253 -1.15638
rtoes 4.06192
lfemur -41.0152 8.88724 -21.1642
ltibia 52.6015
lfoot 0.0874156 0.450949
ltoes -5.96498
431
root 0.195203 19.1735 0.468896 7.25032 3.82019 0.210586
lowerback 12.057 -0.433044 -2.0639
upperback 7.98938 -0.747849 2.02657
thorax 1.66782 -0.496973 3.34881
lowerneck -8.80375 -0.0599823 -2.61045
upperneck 22.2707 0.330687 0.249635
head 8.35232 -0.0301025 0.557278
rclavicle -4.96962e-015 1.59028e-015
rhumerus -23.3361 -10.5546 -79.3267
rradius 31.0097
rwrist 28.0395
rhand -16.0263 -24.6669
rfingers 7.12502
rthumb 10.1748 -54.4009
lclavicle -4.96962e-015 1.59028e-015
lhumerus -31.1487 0.162905 84.3753
lradius 13.5748
lwrist 12.1072
lhand -21.7995 -5.23744
lfingers 7.12502
lthumb 4.60238 24.6926
rfemur -42.8885 -4.26389 18.6153
rtibia 51.6282
rfoot 8.08455 -1.00463
rtoes 3.16849
lfemur -41.169 8.65806 -21.3366
ltibia 48.8637
lfoot -0.899009 0.230912
ltoes -7.71226
432
root 0.201017 19.046 0.727539 7.35688 3.74257 0.110705
lowerback 11.9693 -0.389075 -1.91142
upperback 8.08679 -0.675698 2.05996
thorax 1.81043 -0.459225 3.28856
lowerneck -8.75799 -0.121886 -2.54093
upperneck 22.3642 0.244385 0.19707
head 8.377 -0.0705887 0.519902
rclavicle 2.78299e-015 -3.97569e-015
rhumerus -23.3876 -10.8352 -79.3936
rradius 30.723
rwrist 28.2537
rhand -16.0088 -24.6735
rfingers 7.12502
rthumb 10.1917 -54.4066
lclavicle 2.78299e-015 -3.97569e-015
lhumerus -31.4868 0.794961 84.6163
lradius 13.2009
lwrist 11.611
lhand -21.1533 -4.77167
lfingers 7.12502
lthumb 5.22634 25.1439
rfemur -43.2124 -3.91829 18.5532
rtibia 47.4666
rfoot 8.79534 -1.01837
rtoes 2.28243
lfemur -41.2046 8.46374 -21.4692
ltibia 44.9914
lfoot -1.77728 0.032888
ltoes -9.46449
433
root 0.206228 18.9076 0.996623 7.47406 3.65407 0.0165196
lowerback 11.7227 -0.33565 -1.77414
upperback 8.17741 -0.59189 2.08514
thorax 2.03116 -0.416762 3.22565
lowerneck -8.70117 -0.181968 -2.47688
upperneck 22.5036 0.155126 0.174142
head 8.41506 -0.110297 0.493161
rclavicle -1.70955e-014 3.02153e-014
rhumerus -23.4386 -11.1823 -79.4492
rradius 30.4329
rwrist 28.4658
rhand -16.0092 -24.686
rfingers 7.12502
rthumb 10.1912 -54.4192
lclavicle -1.70955e-014 3.02153e-014
lhumerus -31.8366 1.40913 84.8284
lradius 12.8521
lwrist 11.1696
lhand -20.6088 -4.37055
lfingers 7.12502
lthumb 5.75203 25.5314
rfemur -43.3982 -3.56463 18.4617
rtibia 43.3227
rfoot 9.58818 -1.16765
rtoes 1.54429
lfemur -41.1076 8.27939 -21.5618
ltibia 41.0731
lfoot -2.52509 -0.174712
ltoes -11.1996
